<svg width="52" height="46" viewBox="0 0 52 46" fill="none" xmlns="http://www.w3.org/2000/svg">
<path d="M47.4398 11.8261L47.092 12.1777L47.1022 12.1879L34.45 24.9792C33.3762 26.0648 31.634 26.0648 30.5602 24.9792L24.7305 19.0854L24.3752 18.7263L24.0197 19.0852L14.94 28.2544L14.9398 28.2546C13.866 29.3403 12.1238 29.3403 11.05 28.2546C9.97317 27.166 9.97317 25.3952 11.05 24.3065L22.425 12.8065C23.4989 11.7209 25.241 11.7209 26.3148 12.8065L32.1445 18.7003L32.5002 19.0598L32.8556 18.7001L43.55 7.87796C43.5501 7.8779 43.5501 7.87784 43.5502 7.87779C44.624 6.79232 46.3661 6.79237 47.4398 7.87796C48.5167 8.96663 48.5167 10.7374 47.4398 11.8261ZM3.25 0.5C4.76638 0.5 6 1.73928 6 3.28571V37.7857C6 38.9603 6.94997 39.9286 8.125 39.9286H48.75C50.2664 39.9286 51.5 41.1679 51.5 42.7143C51.5 44.2607 50.2664 45.5 48.75 45.5H8.125C3.91722 45.5 0.5 42.0531 0.5 37.7857V3.28571C0.5 1.73928 1.73362 0.5 3.25 0.5Z" fill="#6366F1" stroke="black"/>
</svg>
