<svg width="38" height="38" viewBox="0 0 38 38" fill="none" xmlns="http://www.w3.org/2000/svg">
<path d="M36.4166 4.7503C34.9004 5.8198 33.2216 6.6378 31.4449 7.1728C30.4913 6.07636 29.224 5.29923 27.8144 4.94651C26.4047 4.5938 24.9208 4.68252 23.5632 5.20068C22.2056 5.71884 21.04 6.64143 20.2238 7.84368C19.4077 9.04593 18.9804 10.4698 18.9999 11.9228V13.5061C16.2174 13.5783 13.4603 12.9612 10.974 11.7098C8.48776 10.4583 6.34959 8.61147 4.74992 6.33363C4.74992 6.33363 -1.58342 20.5836 12.6666 26.917C9.40575 29.1304 5.52125 30.2403 1.58325 30.0836C15.8333 38.0003 33.2499 30.0836 33.2499 11.8753C33.2485 11.4343 33.2061 10.9943 33.1233 10.5611C34.7392 8.96749 35.8796 6.95543 36.4166 4.7503Z" stroke="#1E1E1E" stroke-width="3" stroke-linecap="round" stroke-linejoin="round"/>
</svg>
