<svg width="38" height="38" viewBox="0 0 38 38" fill="none" xmlns="http://www.w3.org/2000/svg">
<path d="M25.3334 12.667C27.853 12.667 30.2693 13.6679 32.0509 15.4495C33.8325 17.2311 34.8334 19.6474 34.8334 22.167V33.2503H28.5001V22.167C28.5001 21.3271 28.1664 20.5217 27.5726 19.9278C26.9787 19.334 26.1733 19.0003 25.3334 19.0003C24.4936 19.0003 23.6881 19.334 23.0942 19.9278C22.5004 20.5217 22.1667 21.3271 22.1667 22.167V33.2503H15.8334V22.167C15.8334 19.6474 16.8343 17.2311 18.6159 15.4495C20.3975 13.6679 22.8139 12.667 25.3334 12.667Z" stroke="#1E1E1E" stroke-width="3" stroke-linecap="round" stroke-linejoin="round"/>
<path d="M9.50008 14.2503H3.16675V33.2503H9.50008V14.2503Z" stroke="#1E1E1E" stroke-width="3" stroke-linecap="round" stroke-linejoin="round"/>
<path d="M6.33341 9.50033C8.08232 9.50033 9.50008 8.08256 9.50008 6.33366C9.50008 4.58476 8.08232 3.16699 6.33341 3.16699C4.58451 3.16699 3.16675 4.58476 3.16675 6.33366C3.16675 8.08256 4.58451 9.50033 6.33341 9.50033Z" stroke="#1E1E1E" stroke-width="3" stroke-linecap="round" stroke-linejoin="round"/>
</svg>
