<svg width="79" height="64" viewBox="0 0 79 64" fill="none" xmlns="http://www.w3.org/2000/svg">
<path d="M42.95 12V12.5H43.45H58.2625C62.8933 12.5 66.65 16.2952 66.65 21V55C66.65 59.7048 62.8933 63.5 58.2625 63.5H20.7375C16.1067 63.5 12.35 59.7048 12.35 55V21C12.35 16.2952 16.1067 12.5 20.7375 12.5H35.55H36.05V12V4C36.05 2.05769 37.5972 0.5 39.5 0.5C41.4028 0.5 42.95 2.05769 42.95 4V12ZM25.675 47.5C24.3067 47.5 23.2 48.6298 23.2 50C23.2 51.3702 24.3067 52.5 25.675 52.5H29.625C30.9933 52.5 32.1 51.3702 32.1 50C32.1 48.6298 30.9933 47.5 29.625 47.5H25.675ZM37.525 47.5C36.1567 47.5 35.05 48.6298 35.05 50C35.05 51.3702 36.1567 52.5 37.525 52.5H41.475C42.8433 52.5 43.95 51.3702 43.95 50C43.95 48.6298 42.8433 47.5 41.475 47.5H37.525ZM49.375 47.5C48.0067 47.5 46.9 48.6298 46.9 50C46.9 51.3702 48.0067 52.5 49.375 52.5H53.325C54.6933 52.5 55.8 51.3702 55.8 50C55.8 48.6298 54.6933 47.5 53.325 47.5H49.375ZM33.0875 32C33.0875 30.5433 32.5161 29.1451 31.4971 28.1131C30.4779 27.081 29.0942 26.5 27.65 26.5C26.2058 26.5 24.8221 27.081 23.8029 28.1131C22.7839 29.1451 22.2125 30.5433 22.2125 32C22.2125 33.4567 22.7839 34.8549 23.8029 35.8869C24.8221 36.919 26.2058 37.5 27.65 37.5C29.0942 37.5 30.4779 36.919 31.4971 35.8869C32.5161 34.8549 33.0875 33.4567 33.0875 32ZM51.35 37.5C52.7942 37.5 54.1779 36.919 55.1971 35.8869C56.2161 34.8549 56.7875 33.4567 56.7875 32C56.7875 30.5433 56.2161 29.1451 55.1971 28.1131C54.1779 27.081 52.7942 26.5 51.35 26.5C49.9058 26.5 48.5221 27.081 47.5029 28.1131C46.4839 29.1451 45.9125 30.5433 45.9125 32C45.9125 33.4567 46.4839 34.8549 47.5029 35.8869C48.5221 36.919 49.9058 37.5 51.35 37.5ZM5.925 28.5H7.4V51.5H5.925C2.93596 51.5 0.5 49.0423 0.5 46V34C0.5 30.9577 2.93596 28.5 5.925 28.5ZM73.075 28.5C76.064 28.5 78.5 30.9577 78.5 34V46C78.5 49.0423 76.064 51.5 73.075 51.5H71.6V28.5H73.075Z" fill="#6366F1" stroke="black"/>
</svg>
