<svg width="64" height="64" viewBox="0 0 64 64" fill="none" xmlns="http://www.w3.org/2000/svg">
<path d="M16.0732 43.89C15.1425 42.9594 14.8176 41.6196 15.2313 40.3776C15.6053 39.2682 16.104 37.822 16.7024 36.1639L16.9441 35.4942H16.2321H3.00778C2.11113 35.4942 1.2771 35.0144 0.829176 34.2331C0.381844 33.4529 0.391974 32.4957 0.850177 31.7251L0.850436 31.7247L7.41252 20.6631C7.41255 20.6631 7.41257 20.663 7.41259 20.663C8.94772 18.0771 11.7219 16.4957 14.7197 16.4957H25.0066H25.2897L25.4354 16.253C25.7293 15.7631 26.0241 15.3084 26.3214 14.8625C36.4004 -0.00192565 51.4001 -0.505722 60.4018 1.15114L60.4032 1.1514C61.6444 1.3761 62.6129 2.35052 62.8506 3.60091C64.5072 12.615 63.9904 27.6019 49.1371 37.6803L49.1351 37.6817C48.7082 37.9744 48.2422 38.2688 47.7482 38.5652L47.5054 38.7109V38.994V49.2807C47.5054 52.2795 45.9232 55.0648 43.3394 56.5868L43.3381 56.5876L32.2761 63.1496L32.2757 63.1498C31.5051 63.608 30.5478 63.6182 29.7676 63.1708C28.9853 62.7223 28.5065 61.9002 28.5065 60.9923V47.5933V46.8902L27.8423 47.121C26.0854 47.7316 24.5522 48.2302 23.3909 48.6048C22.2477 48.9721 21.0021 48.6987 20.0909 47.9076L19.9355 47.7522L16.0732 43.89ZM48.0054 21.4953C49.464 21.4953 50.8629 20.9159 51.8943 19.8845C52.9257 18.8532 53.5052 17.4543 53.5052 15.9957C53.5052 14.5371 52.9257 13.1383 51.8943 12.1069C50.8629 11.0755 49.464 10.4961 48.0054 10.4961C46.5468 10.4961 45.1479 11.0755 44.1165 12.1069C43.0851 13.1383 42.5057 14.5371 42.5057 15.9957C42.5057 17.4543 43.0851 18.8532 44.1165 19.8845C45.1479 20.9159 46.5468 21.4953 48.0054 21.4953Z" fill="#6366F1" stroke="black"/>
</svg>
