<svg width="104" height="440" viewBox="0 0 104 440" fill="none" xmlns="http://www.w3.org/2000/svg">
<path d="M69.5158 339C54.8664 303.615 53.099 278 45.0001 240C34.4501 190.5 23.3857 134.373 25 84C25.7578 60.3555 32.1595 23.6945 55.1917 8.44767C59.9747 5.28145 70.2033 0.754046 75.5979 5.55792C84.6269 13.5982 80.8533 40.4694 80.238 50.5407C77.7815 90.7519 73.1358 130.939 69.5158 171.056C63.7693 234.739 58.0229 298.421 52.2764 362.103" stroke="black" stroke-width="6" stroke-linecap="round"/>
<path d="M79.2323 436.325C75.351 436.325 81.8078 436.325 82.5763 436.325C92.2873 436.325 96.5945 430.581 99.2962 421.125C106.042 397.516 71.4051 370.635 50.8084 391.486C42.7577 399.635 41.8481 423.261 48.0725 429.485C56.0252 437.438 69.9079 438.252 79.2323 433.589" stroke="black" stroke-width="6" stroke-linecap="round"/>
</svg>
