<svg xmlns="http://www.w3.org/2000/svg" width="155" height="60" viewBox="0 0 155 60">
  <path style="fill:#EB3F43; fill-rule:evenodd" d="M290.581,74.554c0,10.331-5.248,18.5-13.149,18.5-7.723,0-13.264-7.821-13.264-18.619,0-10.331,5.246-18.5,13.147-18.5,7.724,0,13.266,7.821,13.266,18.619m8.667-.291c0-11.615-8.963-20.838-21.816-20.838-11.85,0-21.932,8.405-21.932,21.3,0,11.615,8.962,20.837,21.815,20.837,11.85,0,21.933-8.4,21.933-21.3m19.1,4.2c0,4.086-1.886,7.588-4.834,7.588-2.83,0-5.07-3.094-5.07-7.821,0-4.027,1.886-7.588,4.893-7.588,2.771,0,5.011,3.093,5.011,7.821M338.4,62.414c0-2.919-2.654-5.078-7.548-5.078-6.721,0-11.909,4.32-11.909,10.915,0,0.525.059,0.934,0.059,1.343a14.313,14.313,0,0,0-5.484-1.05c-5.305,0-11.673,3.21-11.673,10.156a9.106,9.106,0,0,0,5.011,7.938c-4.717.641-7.428,3.152-7.428,7.062,0,3.969,3.184,6.829,9.138,6.129l8.608-1.05c4.305-.525,5.719.991,5.719,3.21,0,3.852-3.655,6.946-9.492,6.946-4.658,0-6.368-1.635-6.368-3.97,0-.35.06-0.817,0.06-1.167a2.3,2.3,0,0,0-2.3-2.451,2.59,2.59,0,0,0-2.654,2.859c0,3.853,3.715,7.3,11.321,7.3,8.549,0,13.973-5.487,13.973-11.79,0-5.02-4.068-7.763-9.669-7.063l-9.847,1.225c-3.242.409-4.244-.642-4.244-2.276,0-1.927,2.123-3.443,9.492-3.443h0.118c5.365,0,11.674-3.211,11.674-10.157A8.5,8.5,0,0,0,322.6,72.1a7.494,7.494,0,0,1-.707-3.618c0-5.136,3.536-8.054,7.192-8.054,1.533,0,2,.233,2,1.284,0,0.291-.059.525-0.059,0.875a3.688,3.688,0,0,0,7.371-.175m18.276,30.642-2.889-.292a0.8,0.8,0,0,1-.707-0.875V51.5L342.7,54.127v1.225l2.948,0.934a0.949,0.949,0,0,1,.649.993V91.714a1.165,1.165,0,0,1-1.3,1.109l-2.631.053-2.792-.053a1.165,1.165,0,0,1-1.3-1.109V68.426L327.9,71.053v1.225l2.947,0.934a0.949,0.949,0,0,1,.649.993V91.889a0.8,0.8,0,0,1-.707.875l-2.417.292v1.868h28.3V93.057ZM410.5,71.227V69.418H400.417v1.75l2.358,0.467c0.826,0.175,1.062.818,0.531,2.1l-5.423,12.958c-0.236.525-.532,0.525-0.709,0l-5.069-12.958c-0.532-1.342-.236-1.925.588-2.1l2.359-.467v-1.75H374.065v1.75l2.358,0.467c0.825,0.175,1.12.818,0.589,2.1l-5.247,13.658c-0.236.526-.53,0.526-0.707,0l-5.307-13.658c-0.471-1.342-.236-1.925.59-2.1l2.358-.467v-1.75H355.375v1.809l1.3,0.291a2.261,2.261,0,0,1,1.768,1.46l9.021,21.946h4.068l9.021-21.946c0.471-1.168,1-1.635,1.945-1.635h0.353a1.84,1.84,0,0,1,1.827,1.4l9.434,22.763-2.536,5.953c-1.65,3.969-2.888,4.67-4.421,4.67-0.648,0-1.357-.117-2.064-0.117a2.754,2.754,0,0,0-2.948,2.685c0,1.576,1.3,2.685,3.361,2.685,2.948,0,5.837-2.335,8.254-7.938l12.853-29.825a3.229,3.229,0,0,1,2.594-2.159Z" transform="translate(-255.5 -51.5)"/>
</svg>
