<svg width="921" height="95" viewBox="0 0 921 95" fill="none" xmlns="http://www.w3.org/2000/svg">
<path d="M3.79188 91.7164C4.80796 74.3998 38.9831 53.0976 57.1009 39.2342C71.4626 28.2448 100.765 0.112184 136.472 3.93819C178.61 8.45331 171.763 44.8438 214.604 52.3435C256.487 59.6754 253.434 26.3632 275.579 27.3778C287.623 27.9296 303.32 38.9273 314.096 41.4776C364.094 53.3101 428.245 55.9933 479.556 43.227C508.782 35.9556 556.013 6.84508 586.47 23.0512C621.237 41.5513 663.672 56.0209 718.817 50.1304C753.871 46.386 766.128 38.1104 798.392 49.3422C836.848 62.7292 869.616 70.6064 917.577 71.263" stroke="black" stroke-width="6" stroke-linecap="round"/>
</svg>
