<svg width="55" height="58" viewBox="0 0 55 58" fill="none" xmlns="http://www.w3.org/2000/svg">
<path d="M23.9708 4.125H24.4708V3.625C24.4708 1.88335 25.8366 0.5 27.5 0.5C29.1634 0.5 30.5292 1.88335 30.5292 3.625V4.125H31.0292H47.9472C48.2725 4.125 48.5964 4.26093 48.8351 4.50621L54.1289 9.94371C54.6237 10.4519 54.6237 11.2981 54.1289 11.8063L48.8351 17.2438C48.5964 17.4891 48.2725 17.625 47.9472 17.625H6.32494C4.66155 17.625 3.29577 16.2416 3.29577 14.5V7.25C3.29577 5.50835 4.66155 4.125 6.32494 4.125H23.9708ZM30.5292 25.375V25.875H31.0292H48.6751C50.3384 25.875 51.7042 27.2584 51.7042 29V36.25C51.7042 37.9916 50.3384 39.375 48.6751 39.375H7.05284C6.72749 39.375 6.40365 39.2391 6.16485 38.9938L0.87109 33.5563C0.376304 33.0481 0.376303 32.2019 0.87109 31.6937L6.16485 26.2562C6.40365 26.0109 6.72748 25.875 7.05284 25.875H23.9708H24.4708V25.375V22.25H30.5292V25.375ZM24.4708 44H30.5292V54.375C30.5292 56.1166 29.1634 57.5 27.5 57.5C25.8366 57.5 24.4708 56.1166 24.4708 54.375V44Z" fill="#6366F1" stroke="black"/>
</svg>
