<svg xmlns="http://www.w3.org/2000/svg" width="132" height="26" fill="none"><path fill="#0576F6" d="M75.8 3c0 .8-.3 1.5-.9 2a3 3 0 0 1-3.3.6A3 3 0 0 1 70 4.1a2.8 2.8 0 0 1 .7-3.2l1-.7a3 3 0 0 1 3.2.6c.6.6 1 1.3 1 2.1Z"/><path fill="#000" d="M10.5 18.5h-.7a17 17 0 0 0-3.4.3c-.4.2-.8.4-1 .7-.4.3-.5.6-.5 1.1 0 .3 0 .5.2.8l.5.5.7.2.8.1c1.1 0 2-.3 2.5-.8.6-.6.9-1.4.9-2.4v-.5ZM.8 11.8c1-1 2-1.6 3.3-2a11.7 11.7 0 0 1 7.2-.2 5 5 0 0 1 2.3 1.5c.6.7 1 1.6 1.3 2.6.2 1 .4 2.3.4 3.7v7.9h-4.8v-1.7h-.1a4 4 0 0 1-2 1.5c-.7.4-1.6.6-2.6.6l-2-.3c-.7-.2-1.3-.4-1.9-.8-.5-.4-1-.9-1.4-1.5-.3-.6-.5-1.4-.5-2.3 0-1.2.3-2 1-2.8.6-.7 1.4-1.2 2.4-1.6 1-.4 2.1-.6 3.3-.7a35 35 0 0 1 3.6-.2v-.3c0-.7-.3-1.3-.8-1.7-.6-.3-1.3-.5-2.1-.5s-1.5.1-2.2.4a7 7 0 0 0-1.8 1.2L.8 11.8ZM31.3 25.3v-2A5 5 0 0 1 29 25c-1 .4-2 .6-3 .6a7.2 7.2 0 0 1-5.7-2.5 8.4 8.4 0 0 1-1.5-2.7 9.7 9.7 0 0 1 0-6.2c.4-1 .9-1.9 1.5-2.7A7.4 7.4 0 0 1 26 9.1a6.2 6.2 0 0 1 5 2.2V1.5h5.3v23.8h-4.9Zm-.1-7.9c0-.5-.1-1-.3-1.4l-.8-1.3a3.6 3.6 0 0 0-2.8-1.3 3.7 3.7 0 0 0-3.6 2.5 5 5 0 0 0 0 3c.2.5.4 1 .8 1.3a3.6 3.6 0 0 0 2.8 1.3 3.6 3.6 0 0 0 2.8-1.3l.8-1.3.3-1.5ZM60.8 25.3V15.5a3 3 0 0 0-.4-1c-.2-.4-.4-.6-.7-.8a2 2 0 0 0-1.1-.3c-.5 0-.9.1-1.2.3l-.9.8-.4 1c-.2.5-.2.9-.2 1.3v8.5h-5.3v-9c0-.8-.2-1.6-.5-2-.4-.6-1-.9-1.8-.9s-1.5.4-2 1a4 4 0 0 0-.6 2.4v8.5h-5.3V9.6h5.1v2.2l.8-1 1-.8a5.6 5.6 0 0 1 3-.8c1.2 0 2.2.2 3 .7.8.4 1.4 1.1 1.9 2a6 6 0 0 1 2-2 6 6 0 0 1 3.1-.7c1.1 0 2 .2 2.7.6.8.4 1.4.9 1.8 1.5.5.6.8 1.3 1 2l.3 2.3v9.7h-5.3ZM70.2 25.3V9.6h5.2v15.7h-5.2ZM90 13.8h-.7l-.6-.1a4 4 0 0 0-1.8.4c-.5.2-.9.5-1.2.9-.3.3-.5.7-.6 1.1l-.2 1.1v8h-5.3V9.7h5.1V12c.5-.8 1-1.5 1.8-2a4.6 4.6 0 0 1 3.2-.7l.5.1-.2 4.5ZM101.3 18.5h-.6a17 17 0 0 0-3.4.3l-1.1.7c-.3.3-.5.6-.5 1.1l.2.8.6.5.7.2.8.1c1 0 2-.3 2.5-.8.5-.6.8-1.4.8-2.4v-.5Zm-9.6-6.7c.9-1 2-1.6 3.2-2a11.7 11.7 0 0 1 7.3-.2 5 5 0 0 1 2.3 1.5c.6.7 1 1.6 1.2 2.6.3 1 .5 2.3.5 3.7v7.9h-4.9v-1.7a4 4 0 0 1-2 1.5c-.7.4-1.6.6-2.6.6l-2-.3c-.7-.2-1.3-.4-1.9-.8-.5-.4-1-.9-1.4-1.5-.3-.6-.5-1.4-.5-2.3 0-1.2.3-2 1-2.8.6-.7 1.4-1.2 2.4-1.6 1-.4 2-.6 3.3-.7a35 35 0 0 1 3.6-.2v-.3c0-.7-.3-1.3-.9-1.7-.5-.3-1.2-.5-2-.5s-1.5.1-2.2.4a7 7 0 0 0-1.8 1.2l-2.6-2.8ZM110.2 25.3V1.5h5.3v23.8h-5.3ZM129.1 14.3c-.4-.4-1-.8-1.5-1-.6-.3-1.2-.5-1.8-.5-.5 0-1 .1-1.4.3a1 1 0 0 0-.6 1c0 .4.2.8.6 1l2.3.6c.6 0 1.2.3 1.8.5.6.2 1.2.5 1.7 1 .5.3.9.8 1.2 1.3.3.5.4 1.2.4 2 0 1-.2 1.8-.6 2.5a5 5 0 0 1-1.6 1.6l-2.2 1-2.4.2c-1.4 0-2.6-.2-4-.6-1.1-.4-2.2-1-3-1.8l3-3 1.7 1.2a5 5 0 0 0 2.2.5l1.2-.3c.4-.2.7-.6.7-1 0-.6-.3-1-.8-1.1a14 14 0 0 0-2.4-.8c-.6 0-1.1-.3-1.7-.5-.6-.2-1-.5-1.5-.8-.4-.4-.8-.8-1-1.3a4 4 0 0 1-.5-2c0-.9.2-1.7.6-2.3a5 5 0 0 1 1.6-1.6c.6-.5 1.3-.8 2.1-1l2.4-.3c1.2 0 2.3.2 3.5.6 1.1.3 2.1.9 2.9 1.6l-2.9 3Z"/></svg>