<svg width="606" height="29" viewBox="0 0 606 29" fill="none" xmlns="http://www.w3.org/2000/svg">
<path d="M1.90843 10.5421C-19.4026 10.5421 144.346 10.5421 165.657 10.5421C198.462 10.5421 231.327 10.4314 264.12 10.6734C287.419 10.8453 311.275 11.1268 333.856 12.5544C340.143 12.9519 355.732 13.8704 358.714 15.551C363.292 18.1313 335.474 21.259 329.697 21.9159C300.881 25.1928 267.696 26.2865 235.877 26.7717C194.824 27.3976 152.049 26.9254 114.202 22.944C99.4326 21.3903 80.4031 18.9854 74.3522 15.2776C69.2889 12.1749 78.4231 9.62161 89.5375 8.02676C113.963 4.52181 145.342 3.46251 173.443 2.71168C215.454 1.58923 262.306 1.95366 304.454 2.71169C384.407 4.14962 458.332 9.05217 535.279 13.8996C552.991 15.0153 570.884 16.1004 588.234 17.4867C591.745 17.7672 595.723 18.0831 598.97 18.5257C603.191 19.1007 601.959 19.4033 604 20.188" stroke="#fff" stroke-width="3" stroke-linecap="round"/>
</svg>
