<svg width="61" height="78" viewBox="0 0 61 78" fill="none" xmlns="http://www.w3.org/2000/svg">
<path fill-rule="evenodd" clip-rule="evenodd" d="M57.9978 21.8141C57.7613 18.9043 57.5528 16.0236 57.2322 13.1223C57.1655 12.4979 56.6119 12.0506 55.9961 12.1193C55.3761 12.1865 54.9304 12.7482 54.9986 13.3684C55.3152 16.2539 55.5228 19.1101 55.7568 21.9998C55.8093 22.624 56.3527 23.087 56.9667 23.0369C57.5864 22.984 58.0503 22.4382 57.9978 21.8141Z" fill="#6366F1"/>
<path fill-rule="evenodd" clip-rule="evenodd" d="M38.2716 35.5377C31.7146 29.0956 24.8385 22.9913 18.1494 16.6943C17.6935 16.2674 16.9832 16.2928 16.5608 16.7476C16.137 17.2067 16.158 17.9204 16.6124 18.3516C23.2917 24.6356 30.1581 30.7267 36.6997 37.1585C37.1468 37.5967 37.8568 37.5857 38.2904 37.1397C38.7255 36.6894 38.7145 35.9744 38.2716 35.5377Z" fill="#6366F1"/>
<path fill-rule="evenodd" clip-rule="evenodd" d="M25.2363 66.0967C17.619 64.692 9.95093 63.4997 2.34947 62.0093C1.74135 61.8933 1.15224 62.2934 1.03285 62.9043C0.911964 63.5195 1.31347 64.1144 1.92008 64.2346C9.53154 65.7238 17.2081 66.919 24.8354 68.3226C25.445 68.4343 26.0315 68.0284 26.1424 67.4145C26.2548 66.7963 25.8501 66.2099 25.2363 66.0967Z" fill="#6366F1"/>
</svg>
