<svg width="38" height="40" viewBox="0 0 38 40" fill="none" xmlns="http://www.w3.org/2000/svg">
<path fill-rule="evenodd" clip-rule="evenodd" d="M26.2549 5.25074C29.2797 6.53291 32.5089 7.40353 35.6445 8.22443C36.3202 8.39891 37.0198 8.01257 37.1562 7.35671C37.3418 6.70673 36.9309 6.03602 36.3043 5.86797C33.2648 5.07498 30.1311 4.24201 27.2491 3.01162C26.6353 2.74624 25.899 3.02974 25.6179 3.64695C25.337 4.26367 25.6412 4.98489 26.2549 5.25074Z" fill="#6366F1"/>
<path fill-rule="evenodd" clip-rule="evenodd" d="M15.1125 16.3283C19.4941 22.0815 24.5997 27.2635 28.8651 33.1404C29.2422 33.6865 30.0236 33.8158 30.5742 33.4246C31.125 33.033 31.275 32.2724 30.8488 31.72C26.5854 25.828 21.4817 20.6315 17.1022 14.8633C16.6745 14.3224 15.8907 14.2125 15.3383 14.6167C14.8351 15.0269 14.6849 15.7874 15.1125 16.3283Z" fill="#6366F1"/>
<path fill-rule="evenodd" clip-rule="evenodd" d="M3.06228 34.659C3.2993 31.7269 3.5366 28.7948 3.77367 25.8621C3.86167 25.1948 3.34067 24.6023 2.64961 24.5445C1.95849 24.4872 1.39332 24.9907 1.30526 25.6583C1.0676 28.5954 0.829724 31.5319 0.592135 34.4684C0.553191 35.1421 1.07445 35.7312 1.76602 35.7852C2.40853 35.8327 3.0234 35.3322 3.06228 34.659Z" fill="#6366F1"/>
</svg>
