<svg width="76" height="62" viewBox="0 0 76 62" fill="none" xmlns="http://www.w3.org/2000/svg">
    <path d="M54.6685 8.20182L54.67 8.20189C58.1069 8.37122 60.8577 10.0392 63.7079 11.9975C68.3113 15.1642 71.3441 19.177 72.4583 23.5626C73.5702 27.9391 72.7875 32.7474 69.6483 37.5527C64.7284 45.0626 56.5177 51.3008 47.2871 55.089C38.0562 58.8772 27.8587 60.1938 18.9819 57.9278L18.9814 57.9277C18.599 57.8305 18.2062 57.7349 17.805 57.6371C13.969 56.7028 9.37164 55.583 5.90208 51.2458L5.90202 51.2457C2.36717 46.8285 2.48647 41.5592 4.14507 36.5825L4.14539 36.5815C5.83572 31.474 9.10574 26.7526 11.7201 23.7094C17.4351 17.0709 26.0284 10.7229 35.7843 6.83503C45.5389 2.94767 56.4184 1.53363 66.7287 4.702L66.7286 4.70207L66.7372 4.70453C67.3924 4.89321 68.119 4.57755 68.3339 3.90007C68.5419 3.24558 68.1744 2.55203 67.5143 2.3474L67.5131 2.34703C56.623 -0.998819 45.1666 0.484502 34.9587 4.52233C24.7522 8.55964 15.7563 15.1646 9.76556 22.1227L9.76485 22.1236C6.45867 25.9806 2.09815 32.4543 0.847394 39.1957L0.847194 39.1968C-0.00039959 43.8225 0.591062 48.6007 3.89271 52.7607L3.89344 52.7616C7.85903 57.7341 13.165 59.0403 17.25 60.0459C17.6228 60.1377 17.9855 60.227 18.336 60.3163C27.7607 62.7231 38.5264 61.3226 48.2147 57.3579C57.9032 53.3931 66.568 46.8422 71.7734 38.8807C75.2915 33.5044 76.2272 28.0386 74.9656 23.0163C73.7062 18.0031 70.2731 13.4929 65.1658 9.98079C62.0862 7.84595 58.8573 5.93478 54.8111 5.73583L54.8109 5.73582C54.1496 5.70366 53.5003 6.18654 53.4892 6.91228C53.447 7.61572 54.0237 8.16805 54.6685 8.20182Z" fill="white" stroke="white"/>
    </svg>
    